<svg xmlns="http://www.w3.org/2000/svg" viewBox="0 0 1500 182">
  <defs>
    <filter id="RvstBc6_sa">
      <feColorMatrix in="SourceGraphic" values="0 0 0 0 1.000000 0 0 0 0 1.000000 0 0 0 0 1.000000 0 0 0 1.000000 0"/>
    </filter>
  </defs>
  <g filter="url(#RvstBc6_sa)" fill="none" fill-rule="evenodd">
    <path d="M131 90.8c0 19.3-1.7 35.1-4.8 46.8-3 11.8-7.7 21-13.2 27.5-5.7 6.3-12.6 10.7-20.6 12.8-8.1 2.1-17 3.2-26.6 3.2-9.8 0-18.8-1-26.8-3.2-8-2.1-14.9-6.3-20.5-12.8-5.7-6.3-10.1-15.5-13.2-27.5C2.1 125.8.5 110.1.5 90.8.5 71.5 2.2 55.7 5.3 44c3-11.8 7.7-21 13.2-27.5C24.2 10.2 31.1 5.8 39 3.7 47 1.6 55.9.5 65.8.5c9.7 0 18.6 1 26.6 3.2 8.1 2.1 15 6.3 20.6 12.8 5.7 6.3 10.1 15.5 13.2 27.5 3.2 11.9 4.8 27.5 4.8 46.8zm-86.5 0c0 11.8.3 21.4 1 28.6.7 7.2 1.7 12.9 3.2 16.9 1.5 4.1 3.6 6.8 6.3 8 2.8 1.4 6.2 1.9 10.7 1.9 4.3 0 7.9-.7 10.7-1.9 2.8-1.4 5-4.1 6.3-8 1.5-4.1 2.6-9.7 3.2-16.9.6-7.2 1-16.8 1-28.6 0-11.7-.3-21.3-1-28.4-.7-7.2-1.7-12.9-3.2-16.9-1.5-4.1-3.6-6.8-6.3-8.1-2.8-1.4-6.2-2.1-10.7-2.1-4.3 0-7.9.7-10.7 2.1-2.8 1.4-5 4.3-6.3 8.1-1.5 4.1-2.6 9.7-3.2 16.9-.7 7.3-1 16.8-1 28.4zm178.2-51h-31.5c-6.1 0-9.2-3-9.2-8.8V3.9h116c6.1 0 9.2 3 9.2 8.8v27h-40.5v137.7H232c-6.1 0-9.2-3-9.2-8.8l-.1-128.8zM378.4 135h-35.1c-1 7.7-1.9 15.3-2.8 22.9-.8 7.5-1.4 14.1-1.8 19.8h-33.5c-2.3 0-4.3-.7-5.7-2.1-1.4-1.4-2.1-4.1-2.1-7.5 0-1.5.1-3.2.2-4.8.1-1.7.6-3.2.7-4.8 4.6-27.4 9.7-53.7 15.3-78.8 5.7-25.1 12.8-50.4 21.4-75.5h45.4c3.4 0 5.7.8 7 2.6 1.4 1.7 2.3 3.5 3 5.2 7.5 22.4 14.4 47.7 20.5 76.1 6.1 28.3 11.7 58.2 16.5 89.6h-36c-5.3 0-8.4-3-9.2-9l-3.8-33.7zm-17.6-98.9c-3.5 14.1-6.2 26.4-8.4 37.2-2.1 10.8-4.1 21-5.9 30.7H375c-1.9-9.7-3.8-19.9-5.9-30.7-2.1-10.8-4.8-23.1-8.3-37.2zm80.4-29.2c9.3-1.9 18.7-3.2 27.9-4.3 9.2-1 17.6-1.4 25.2-1.4 9.1 0 17.4.8 25.1 2.5 7.5 1.7 13.9 4.3 19.1 8 5.2 3.7 9.2 8.7 12.2 14.8 2.8 6.1 4.3 13.5 4.3 22.4 0 9.3-1.9 17.2-5.3 23.3-3.6 6.1-9.7 11.5-18.1 15.7 5.7 2.3 10.4 5.1 14.1 8.1 3.7 3.2 6.5 6.5 8.4 10.4 1.9 3.7 3.4 7.7 4.3 11.6.7 4.1 1.1 8 1.1 12.1 0 9.3-1.5 17-4.6 23.1-3 6-7.1 11-12.3 14.6-5.2 3.7-11.2 6.2-18.3 7.7-7.1 1.5-14.6 2.1-22.5 2.1h-51.2c-6.1 0-9.2-3-9.2-8.8l-.2-161.9zm42 66.7h13c6.3 0 11-1.4 13.7-4.3 2.8-2.8 4.3-8.1 4.3-16.1 0-7.9-1.4-13.2-4.1-15.9-2.7-2.7-7.3-4.3-14.3-4.3-1.7 0-3.8 0-6.5.1s-4.6.2-6 .3l-.1 40.2zm0 73.3h14.6c7.1 0 12.3-1.8 15.4-5.1 3.2-3.5 4.6-9 4.6-16.7 0-8-1.8-13.7-5.1-16.9-3.5-3.2-9.2-5-17.3-5h-12.1v43.7h-.1zm218-56.1c0 19.3-1.7 35.1-4.8 46.8-3.2 11.8-7.7 21-13.2 27.5-5.7 6.3-12.6 10.7-20.6 12.8-8.1 2.1-17 3.2-26.6 3.2-9.8 0-18.8-1-26.8-3.2-8-2.1-14.9-6.3-20.5-12.8-5.7-6.3-10.1-15.5-13.2-27.5-3.2-11.8-4.8-27.5-4.8-46.8 0-19.3 1.7-35.1 4.8-46.8 3.2-11.8 7.7-21 13.2-27.5 5.7-6.3 12.6-10.7 20.5-12.8 8-2.1 16.9-3.2 26.8-3.2 9.7 0 18.6 1 26.6 3.2 8.1 2.1 15 6.3 20.6 12.8 5.7 6.3 10.1 15.5 13.2 27.5 3.1 11.9 4.8 27.5 4.8 46.8zm-86.5 0c0 11.8.3 21.4 1 28.6.7 7.2 1.7 12.9 3.2 16.9 1.5 4.1 3.6 6.8 6.3 8 2.8 1.4 6.2 1.9 10.7 1.9 4.3 0 7.9-.7 10.7-1.9 2.8-1.4 5-4.1 6.3-8 1.5-4.1 2.6-9.7 3.2-16.9.6-7.2 1-16.8 1-28.6 0-11.7-.3-21.3-1-28.4-.7-7.2-1.7-12.9-3.2-16.9-1.5-4-3.6-6.8-6.3-8.1-2.8-1.4-6.2-2.1-10.7-2.1-4.3 0-7.9.7-10.7 2.1-2.8 1.4-5 4.3-6.3 8.1-1.5 4.1-2.6 9.7-3.2 16.9-.6 7.3-1 16.8-1 28.4zM791 135h-35.1c-1 7.7-1.9 15.3-2.8 22.9-.8 7.5-1.4 14.1-1.8 19.8h-33.5c-2.3 0-4.3-.7-5.7-2.1-1.4-1.4-2.1-4.1-2.1-7.5 0-1.5.1-3.2.2-4.8.1-1.7.6-3.2.7-4.8 4.6-27.4 9.7-53.7 15.3-78.8 5.7-25.2 12.9-50.3 21.5-75.4h45.4c3.4 0 5.7.8 7 2.6 1.4 1.7 2.3 3.5 3 5.2 7.5 22.4 14.4 47.7 20.5 76.1 6.1 28.3 11.7 58.2 16.5 89.6h-36c-5.3 0-8.4-3-9.2-9L791 135zm-17.5-98.9c-3.5 14.1-6.2 26.4-8.4 37.2-2.1 10.8-4.1 21-5.9 30.7h28.5c-1.9-9.7-3.8-19.9-5.9-30.7-2-10.8-4.8-23.1-8.3-37.2zM979 177.6h-34.3c-2.6 0-4.6-1-6.1-2.8-1.7-1.9-2.8-3.9-3.6-6.2-3.4-8.4-6.8-17.2-10.4-25.9-3.5-8.8-7.1-17.3-10.7-25.7-3.6-8.4-7.1-16.3-10.6-24-3.5-7.7-6.8-14.6-9.8-20.5v105.1H863c-6.1 0-9.2-3-9.2-8.8V3.9h32.8c2.6 0 4.6 1 6.5 2.8 1.9 1.9 3.4 3.9 4.6 6.2 2.8 5.7 6 12.4 9.7 19.8 3.6 7.2 7.1 15.1 11 23.1 3.8 8 7.2 16.1 11 24.5 3.7 8.2 7 16.1 9.9 23.9V3.9h30.6c6.1 0 9.2 3 9.2 8.8l-.1 164.9zM1095.1 3.9c6.1 0 9.2 3 9.2 8.8v25.9h-60.7v33.1h44c6.1 0 9.2 3 9.2 8.8v25.9h-53.3v36.7h53.8c6.1 0 9.2 3 9.2 8.8v25.8h-96.4c-6.1 0-9.2-3-9.2-8.8V3.9h94.2zm153.7 173.7h-34.4c-2.6 0-4.6-1-6.1-2.8-1.7-1.9-2.8-3.9-3.6-6.2-3.4-8.4-6.8-17.2-10.4-25.9-3.5-8.8-7.1-17.3-10.7-25.7-3.6-8.3-7.1-16.3-10.6-24-3.5-7.7-6.8-14.6-9.8-20.5v105.1h-30.6c-6.1 0-9.2-3-9.2-8.8V3.9h32.8c2.6 0 4.6 1 6.5 2.8 1.9 1.9 3.4 3.9 4.6 6.2 2.8 5.7 6 12.4 9.7 19.8 3.6 7.2 7.1 15.1 11 23.1 3.8 8 7.2 16.1 11 24.5 3.7 8.2 7 16.1 9.9 23.9V3.9h30.6c6.1 0 9.2 3 9.2 8.8l.1 164.9zm19-123.7c0-9.8 1.4-18.1 4.3-25 2.8-6.8 6.8-12.2 11.9-16.3 5.2-4.1 11.5-7.1 18.8-9 7.2-1.9 15.6-2.8 24.9-2.8 8.4 0 15.5.7 21.4 1.7 5.9 1 10.6 2.3 13.9 3.6 4.3 1.9 6.9 4.1 7.7 6.5.7 2.6 1.1 5 1.1 7.2v17.9c-3.8-.1-7.2-.3-10.4-.7-3-.3-5.9-.6-8.8-.6-3-.1-5.7-.1-8.4-.2-3-.1-5.9-.1-9.2-.1-5.2 0-9.3.3-12.6 1-3.3.7-5.7 1.7-7.7 2.8-1.9 1.1-3.2 2.7-3.7 4.6-.7 1.9-1 3.8-1 6 0 2.6.2 4.6 1 6.3.7 1.8 1.8 3.4 3.5 5 1.8 1.5 4.3 3.2 7.7 4.8 3.5 1.7 8 3.7 13.9 6.2 7.7 3.4 14.1 6.6 19.3 9.7 5.2 3.2 9.5 6.8 12.8 10.8 3.2 4.1 5.5 8.7 7 14.1 1.5 5.3 2.1 11.8 2.1 19.3 0 9.5-1 17.6-3.2 24.5-2.1 6.8-5.7 12.4-10.5 16.8-4.8 4.5-11 7.7-18.5 9.7-7.5 2.1-16.7 3.2-27.6 3.2-8 0-15.5-.6-22.5-1.4-7-1-12.4-2.1-16.1-3.6-3.5-1.4-5.9-3-7.2-5.1-1.4-2-1.9-4.6-1.9-7.3v-20.3c6.5.6 12.9 1 19 1.1 6.1.2 12.6.3 19 .3 5.7 0 10.4-.3 13.9-1 3.6-.7 6.3-1.7 8.2-3 1.9-1.2 3.2-2.8 3.8-4.8.7-1.9 1-4.1 1-6.3 0-3-.6-5.4-1.2-7.3-.7-1.9-2.3-3.7-4.5-5.2-2.1-1.7-5-3.2-8.4-4.8-3.6-1.6-8.1-3.6-13.7-5.9-7.9-3.2-14.3-6.3-19.3-9.7-5-3.4-9-7.1-11.8-11.2-3-4.3-5-8.8-6-13.9-1.4-5.2-2-11.1-2-17.6zm220.3-50c6.1 0 9.2 3 9.2 8.8v25.9h-60.7v33.1h44c6.1 0 9.2 3 9.2 8.8v25.9h-53.3v36.7h53.8c6.1 0 9.2 3 9.2 8.8v25.8H1403c-6.1 0-9.2-3-9.2-8.8V3.9h94.3z" fill="#2480F3" fill-rule="nonzero"/>
  </g>
</svg>
